<?xml version="1.0" encoding="UTF-8" standalone="no"?>
<!DOCTYPE svg PUBLIC "-//W3C//DTD SVG 1.1//EN" "http://www.w3.org/Graphics/SVG/1.1/DTD/svg11.dtd">
<svg width="640" height="108" viewBox="0 0 640 108" version="1.1" xmlns="http://www.w3.org/2000/svg" xmlns:xlink="http://www.w3.org/1999/xlink" xml:space="preserve" xmlns:serif="http://www.serif.com/" style="fill-rule:evenodd;clip-rule:evenodd;stroke-linejoin:round;stroke-miterlimit:2;">
    <g id="g29990" transform="matrix(1,0,0,1,168.905,-0.000103141)">
        <path id="path29986" d="M468.852,28.669C465.211,29.013 463.571,30.903 463.571,35.083C463.571,35.333 463.665,35.692 463.665,35.942L465.681,66.051C466.087,71.934 467.556,73.996 471.681,74.418L471.681,75.871L455.064,75.871L455.064,74.418C458.064,74.16 459.681,72.363 459.681,69.207C459.681,68.348 459.611,67.238 459.525,65.957L457.572,35.426L457.416,35.426L441.611,75.871L440.299,75.871L424.807,35.426L424.643,35.426L422.385,65.535C422.299,65.957 422.299,66.379 422.299,66.816C422.299,71.418 423.916,73.574 427.979,74.418L427.979,75.871L413.534,75.871L413.534,74.418C417.753,73.902 419.3,71.512 419.792,65.09L422.386,31.754C420.519,29.699 418.972,28.848 416.136,28.332L416.136,26.88L427.98,26.88L442.808,65.536L457.902,27.13L468.855,27.13L468.855,28.669L468.852,28.669Z" style="fill:rgb(1,1,1);fill-rule:nonzero;"/>
        <path id="path29988" d="M428.57,12.49C426.523,22.224 416.695,20.029 415.125,16.162C412.023,8.553 418.008,4.474 421.758,5.326C420.141,1.381 414.985,1.678 412.492,3.217C405.187,8.178 403.289,18.459 401.203,26.498C401.18,26.475 410.765,26.451 410.719,26.475L410.719,28.444L400.758,28.444C393.43,56.803 383.578,91.905 364.031,105.78C360.281,108.1 356.156,107.663 353.586,106.647C350.93,105.725 348.07,101.561 348.563,97.131C348.961,94.412 351.368,90.428 355.477,90.428C360.211,90.428 361.868,93.662 362.274,96.334C362.672,99.006 361.946,102.787 358.032,103.615C358.837,104.513 361.055,105.287 364.266,102.217C374.133,91.115 377.696,52.678 387.469,28.42C387.461,28.397 377.696,28.35 377.625,28.443L377.625,26.474L388.172,26.474C393.117,14.904 400.899,3.044 413.461,0.31C427.508,-2.018 429.07,9.435 428.57,12.49" style="fill:rgb(228,30,38);fill-rule:nonzero;"/>
    </g>
    <g id="text2211" transform="matrix(1.0068,0,0,0.993249,0,0)">
        <path id="path30244" d="M33.881,35.85L33.881,27.057L0,27.057L0,28.522C2.184,28.522 3.65,29.068 4.397,30.16C5.201,31.31 5.604,33.379 5.604,36.368L5.604,67.145C5.604,70.133 5.173,72.202 4.311,73.352C3.563,74.444 2.127,74.99 0,74.99L0,76.456L17.759,76.456L17.759,74.99C16.438,74.99 15.317,74.76 14.397,74.3C13.593,73.668 13.018,72.806 12.673,71.714C12.328,70.564 12.156,69.041 12.156,67.145L12.156,52.575L25.174,52.575C26.84,52.575 28.162,53.064 29.139,54.041C30.059,54.96 30.519,56.34 30.519,58.179L31.898,58.179L31.898,44.299L30.519,44.299C30.289,46.311 29.771,47.805 28.967,48.782C28.162,49.701 26.84,50.161 25.001,50.161L12.156,50.161L12.156,29.471L27.156,29.384C28.881,29.557 30.145,30.103 30.95,31.022C31.754,32 32.358,33.609 32.76,35.85L33.881,35.85Z" style="fill-rule:nonzero;"/>
        <path id="path30246" d="M99.024,76.456L99.024,74.99C97.012,74.703 95.374,73.869 94.11,72.49C92.73,70.938 91.035,68.524 89.023,65.248L86.178,60.765L83.764,57.144C82.155,55.018 80.402,53.351 78.505,52.144C80.402,51.799 82.557,50.822 84.971,49.213C87.443,47.604 88.678,44.529 88.678,39.988C88.678,38.264 88.42,36.684 87.902,35.247C87.27,33.752 86.466,32.546 85.489,31.626C83.362,29.557 81.207,28.321 79.023,27.919C77.471,27.517 76.321,27.287 75.574,27.229C74.31,27.114 73.189,27.057 72.212,27.057L51.953,27.057L51.953,28.522C53.964,28.522 55.43,29.011 56.349,29.988C57.154,31.08 57.556,33.149 57.556,36.195L57.556,67.145C57.556,70.306 57.125,72.404 56.263,73.438C55.401,74.473 53.964,74.99 51.953,74.99L51.953,76.456L69.712,76.456L69.712,74.99C67.643,74.99 66.177,74.386 65.315,73.18C64.511,72.03 64.108,70.018 64.108,67.145L64.108,53.61L68.074,53.61C70.2,53.61 72.068,54.213 73.678,55.42C75.402,56.742 76.695,58.093 77.557,59.472C77.787,59.759 78.046,60.162 78.333,60.679C79.023,61.713 79.626,62.633 80.143,63.438C80.488,64.012 80.891,64.673 81.35,65.421C81.81,66.168 82.212,66.829 82.557,67.403C84.914,71.082 87.04,74.099 88.937,76.456L99.024,76.456ZM81.781,40.161C81.781,43.437 80.804,46.138 78.85,48.265C76.954,50.449 74.051,51.541 70.143,51.541L64.108,51.541L64.108,28.953L69.281,28.953C71.695,28.953 73.879,29.442 75.833,30.419C77.73,31.454 79.195,32.804 80.23,34.471C81.264,36.08 81.781,37.977 81.781,40.161Z" style="fill-rule:nonzero;"/>
        <path id="path30248" d="M162.097,76.456L162.097,74.99C160.028,74.99 158.505,74.588 157.528,73.783C156.551,72.863 155.718,71.283 155.028,69.041L140.717,26.54L135.631,26.54L122.009,67.231C121.262,69.185 120.716,70.536 120.371,71.283C119.739,72.375 119.021,73.208 118.216,73.783C117.412,74.415 116.233,74.818 114.682,74.99L114.682,76.456L127.441,76.456L127.441,74.99C124.797,74.99 123.475,73.927 123.475,71.8L128.13,56.455L144.079,56.455L148.562,70.162L148.821,70.766C148.936,71.11 148.993,71.455 148.993,71.8C148.993,73.467 147.557,74.53 144.683,74.99L144.683,76.456L162.097,76.456ZM142.959,53.437L129.079,53.437L135.976,32.488L136.148,32.488L142.959,53.437Z" style="fill-rule:nonzero;"/>
        <path id="path30250" d="M230.775,28.522L230.775,27.057L215.861,27.057L215.861,28.522C218.102,28.522 219.654,29.097 220.516,30.247C221.436,31.339 221.895,33.465 221.895,36.626L221.895,65.507L221.723,65.507L190.859,27.057L178.186,27.057L178.186,28.522C181.06,28.752 182.986,29.586 183.963,31.022C184.997,32.459 185.514,34.672 185.514,37.661L185.514,66.541L185.342,69.731C185.227,70.593 185.055,71.312 184.825,71.886C184.307,73.093 183.646,73.927 182.842,74.386C182.037,74.789 180.888,74.99 179.393,74.99L179.393,76.456L194.394,76.456L194.394,74.99C192.095,74.99 190.428,74.444 189.394,73.352C188.417,72.202 187.928,70.478 187.928,68.179L187.928,33.523L188.101,33.523L222.93,76.456L224.395,76.456L224.395,36.281C224.395,33.35 224.884,31.31 225.861,30.16C226.781,29.068 228.419,28.522 230.775,28.522Z" style="fill-rule:nonzero;"/>
        <path id="path30252" d="M290.486,64.903L289.193,63.696C285.4,70.938 279.653,74.559 271.951,74.559C269.365,74.559 266.865,73.984 264.451,72.835C262.037,71.628 260.025,69.961 258.416,67.834C257.554,66.8 256.778,65.564 256.088,64.127C255.456,62.863 254.91,61.455 254.45,59.903C253.588,56.857 253.157,53.552 253.157,49.989C253.157,45.736 253.876,41.914 255.313,38.523C256.749,35.074 258.847,32.431 261.606,30.591C264.307,28.695 267.583,27.746 271.434,27.746C274.135,27.746 276.607,28.235 278.848,29.212C281.032,30.189 282.814,31.626 284.193,33.523C285.63,35.477 286.722,38.006 287.469,41.109L288.935,41.109L288.935,26.367L287.555,26.367C287.038,27.402 286.147,27.919 284.883,27.919C284.193,27.919 282.383,27.574 279.452,26.884C276.463,26.195 273.675,25.85 271.089,25.85C269.365,25.85 267.583,26.022 265.744,26.367C263.962,26.827 262.353,27.344 260.916,27.919C257.755,29.298 255.054,31.195 252.812,33.609C250.398,36.195 248.617,39.069 247.467,42.23C246.203,45.448 245.571,49.069 245.571,53.092C245.571,58.15 246.749,62.604 249.105,66.455C251.462,70.306 254.479,73.122 258.157,74.904C261.951,76.743 265.859,77.662 269.882,77.662C273.043,77.662 276.003,77.145 278.762,76.111C281.463,75.134 283.82,73.639 285.831,71.628C287.9,69.616 289.452,67.375 290.486,64.903Z" style="fill-rule:nonzero;"/>
        <path id="path30254" d="M363.647,51.541C363.647,46.77 362.498,42.46 360.199,38.609C357.9,34.643 354.71,31.54 350.629,29.298C346.606,26.999 342.209,25.85 337.439,25.85C332.611,25.85 328.128,26.971 323.99,29.212C319.967,31.454 316.777,34.528 314.421,38.437C312.122,42.287 310.972,46.655 310.972,51.541C310.972,54.069 311.26,56.368 311.834,58.437C312.352,60.449 313.242,62.547 314.507,64.731C316.863,68.812 320.024,71.973 323.99,74.214C328.013,76.513 332.439,77.662 337.267,77.662C340.83,77.662 344.278,77.002 347.612,75.68C350.83,74.415 353.647,72.576 356.06,70.162C358.474,67.748 360.314,64.961 361.578,61.8C362.957,58.524 363.647,55.104 363.647,51.541ZM356.06,51.972C356.06,54.96 355.658,57.92 354.854,60.851C353.991,63.725 352.784,66.283 351.233,68.524C349.738,70.708 347.755,72.461 345.284,73.783C342.813,75.105 340.111,75.766 337.18,75.766C331.663,75.766 327.18,73.553 323.731,69.128C320.283,64.645 318.559,58.811 318.559,51.627C318.559,46.857 319.363,42.661 320.973,39.04C322.524,35.419 324.708,32.632 327.525,30.678C330.341,28.724 333.703,27.746 337.611,27.746C341.06,27.746 344.192,28.695 347.008,30.591C349.767,32.546 351.98,35.333 353.647,38.954C355.256,42.575 356.06,46.914 356.06,51.972Z" style="fill-rule:nonzero;"/>
        <path id="path30256" d="M396.978,76.456L396.978,74.99C395.656,74.99 394.535,74.76 393.616,74.3C392.811,73.668 392.236,72.806 391.892,71.714C391.547,70.564 391.374,69.041 391.374,67.145L391.374,36.368C391.374,34.241 391.575,32.66 391.978,31.626C392.323,30.476 392.897,29.672 393.702,29.212C394.507,28.752 395.599,28.522 396.978,28.522L396.978,27.057L379.219,27.057L379.219,28.522C381.46,28.522 382.954,29.04 383.702,30.074C384.449,31.166 384.822,33.264 384.822,36.368L384.822,67.145C384.822,70.076 384.42,72.116 383.615,73.266C382.753,74.415 381.288,74.99 379.219,74.99L379.219,76.456L396.978,76.456Z" style="fill-rule:nonzero;"/>
        <path id="path30258" d="M445.223,63.61C445.223,62.001 444.907,60.334 444.275,58.61C443.7,56.943 442.608,55.334 440.999,53.782C439.332,52.115 437.407,50.679 435.223,49.472L428.326,45.161C426.2,43.782 424.447,42.259 423.067,40.592C421.86,39.04 421.257,37.23 421.257,35.161C421.257,32.804 422.119,30.994 423.843,29.729C425.51,28.407 427.608,27.746 430.137,27.746C431.918,27.746 433.585,28.12 435.137,28.867C436.746,29.557 438.068,30.678 439.102,32.229C440.137,33.609 440.798,35.505 441.085,37.919L442.551,37.919L442.551,26.367L441.172,26.367L440.654,27.574C440.539,27.689 440.281,27.746 439.878,27.746L438.758,27.574L437.464,27.229L435.826,26.626C435.194,26.396 434.62,26.252 434.102,26.195C433.125,25.965 431.832,25.85 430.223,25.85C427.694,25.85 425.366,26.425 423.24,27.574C421.113,28.666 419.504,30.16 418.412,32.057C417.32,33.896 416.774,36.08 416.774,38.609C416.774,42.69 418.182,46.138 420.998,48.954C422.033,50.104 423.613,51.311 425.74,52.575L428.843,54.558L432.206,56.713C434.62,58.265 436.487,59.874 437.809,61.541C439.131,63.208 439.792,65.018 439.792,66.972C439.792,67.949 439.677,68.783 439.447,69.472C439.102,70.507 438.786,71.254 438.499,71.714C437.522,73.093 436.372,74.099 435.051,74.731C433.671,75.421 431.947,75.766 429.878,75.766C428.269,75.766 426.516,75.335 424.619,74.473C422.607,73.496 421.027,72.145 419.877,70.421C418.613,68.639 417.981,66.369 417.981,63.61L416.515,63.61L416.515,76.973L417.981,76.973C418.498,75.708 419.13,75.076 419.877,75.076C420.222,75.306 420.797,75.565 421.602,75.852L424.188,76.8C426.085,77.49 427.895,77.835 429.619,77.835L431.171,77.662C432.895,77.662 434.706,77.26 436.602,76.456C438.556,75.593 440.051,74.616 441.085,73.524C442.465,72.202 443.499,70.737 444.189,69.128C444.534,68.151 444.792,67.26 444.965,66.455C445.137,65.593 445.223,64.645 445.223,63.61Z" style="fill-rule:nonzero;"/>
        <path id="path30260" d="M501.142,67.231L499.676,67.231C498.814,70.047 497.521,71.886 495.797,72.748C494.073,73.611 492.722,74.042 491.745,74.042L479.072,74.042C477.693,74.042 476.744,73.754 476.227,73.18C475.71,72.662 475.451,71.829 475.451,70.679L475.451,53.006L489.331,53.006C490.193,53.006 490.911,53.092 491.486,53.265C492.118,53.437 492.607,53.696 492.952,54.041C493.641,54.673 494.187,55.909 494.59,57.748L496.055,57.748L496.055,45.765L494.59,45.765C494.302,47.316 493.986,48.38 493.641,48.954C493.239,49.644 492.722,50.075 492.09,50.247C491.687,50.477 491.199,50.592 490.624,50.592L475.451,50.592L475.451,29.471L492.779,29.384C494.331,29.614 495.481,30.16 496.228,31.022C496.917,31.77 497.492,33.206 497.952,35.333L498.9,35.333L498.9,27.057L463.295,27.057L463.295,28.522C465.479,28.522 466.945,29.068 467.692,30.16C468.497,31.31 468.899,33.379 468.899,36.368L468.899,67.231C468.899,70.392 468.468,72.461 467.606,73.438C466.629,74.473 465.192,74.99 463.295,74.99L463.295,76.456L498.9,76.456L501.142,67.231Z" style="fill-rule:nonzero;"/>
    </g>
    <g transform="matrix(0.760521,0,0,0.777656,64.6945,36.5601)">
        <path d="M267.502,50.341C268.55,49.466 271.658,50.732 270.689,50.669L268.908,55.544C269.502,55.419 270.009,55.326 270.431,55.263C270.853,55.201 271.314,55.169 271.814,55.169C274.189,55.169 276.095,55.794 277.533,57.044C278.97,58.294 279.689,59.904 279.689,61.873C279.689,64.154 278.705,66.076 276.736,67.638C274.767,69.201 271.72,69.982 267.595,69.982C266.814,69.982 265.908,69.904 264.877,69.748C263.064,69.498 261.345,69.06 259.72,68.435L261.033,65.435L262.486,65.857C262.861,65.982 263.478,66.123 264.338,66.279C265.197,66.435 266.064,66.513 266.939,66.513C268.314,66.513 269.408,66.341 270.22,65.998C271.752,65.404 272.517,64.248 272.517,62.529C272.517,61.279 272.127,60.349 271.345,59.74C270.564,59.13 269.564,58.826 268.345,58.826C267.408,58.826 266.713,58.865 266.259,58.943C265.806,59.021 265.283,59.138 264.689,59.294L264.033,58.732L267.502,50.341Z"/>
    </g>
</svg>
