<?xml version="1.0" encoding="UTF-8" standalone="no"?>
<!DOCTYPE svg PUBLIC "-//W3C//DTD SVG 1.1//EN" "http://www.w3.org/Graphics/SVG/1.1/DTD/svg11.dtd">
<svg width="100%" height="100%" viewBox="0 0 125 107" version="1.1" xmlns="http://www.w3.org/2000/svg" xmlns:xlink="http://www.w3.org/1999/xlink" xml:space="preserve" xmlns:serif="http://www.serif.com/" style="fill-rule:evenodd;clip-rule:evenodd;stroke-linejoin:round;stroke-miterlimit:2;">
    <g id="g29990" transform="matrix(1,0,0,1,-347.095,-0.000103141)">
        <path id="path29986" d="M468.852,28.669C465.211,29.013 463.571,30.903 463.571,35.083C463.571,35.333 463.665,35.692 463.665,35.942L465.681,66.051C466.087,71.934 467.556,73.996 471.681,74.418L471.681,75.871L455.064,75.871L455.064,74.418C458.064,74.16 459.681,72.363 459.681,69.207C459.681,68.348 459.611,67.238 459.525,65.957L457.572,35.426L457.416,35.426L441.611,75.871L440.299,75.871L424.807,35.426L424.643,35.426L422.385,65.535C422.299,65.957 422.299,66.379 422.299,66.816C422.299,71.418 423.916,73.574 427.979,74.418L427.979,75.871L413.534,75.871L413.534,74.418C417.753,73.902 419.3,71.512 419.792,65.09L422.386,31.754C420.519,29.699 418.972,28.848 416.136,28.332L416.136,26.88L427.98,26.88L442.808,65.536L457.902,27.13L468.855,27.13L468.855,28.669L468.852,28.669Z" style="fill:rgb(1,1,1);fill-rule:nonzero;"/>
        <path id="path29988" d="M428.57,12.49C426.523,22.224 416.695,20.029 415.125,16.162C412.023,8.553 418.008,4.474 421.758,5.326C420.141,1.381 414.985,1.678 412.492,3.217C405.187,8.178 403.289,18.459 401.203,26.498C401.18,26.475 410.765,26.451 410.719,26.475L410.719,28.444L400.758,28.444C393.43,56.803 383.578,91.905 364.031,105.78C360.281,108.1 356.156,107.663 353.586,106.647C350.93,105.725 348.07,101.561 348.563,97.131C348.961,94.412 351.368,90.428 355.477,90.428C360.211,90.428 361.868,93.662 362.274,96.334C362.672,99.006 361.946,102.787 358.032,103.615C358.837,104.513 361.055,105.287 364.266,102.217C374.133,91.115 377.696,52.678 387.469,28.42C387.461,28.397 377.696,28.35 377.625,28.443L377.625,26.474L388.172,26.474C393.117,14.904 400.899,3.044 413.461,0.31C427.508,-2.018 429.07,9.435 428.57,12.49" style="fill:rgb(228,30,38);fill-rule:nonzero;"/>
    </g>
    <g id="text2211">
    </g>
</svg>
